# xmcd
#
# Track frame offsets:
#	150
#	24910
#	37885
#	54950
#	75778
#	86183
#	103413
#	120050
#	139305
#	160875
#	177842
#	202833
#	215925
#	235800
#
# Disc length: 3623 seconds
#
# Revision: 1
# Processed by: cddbd v1.5.1PL0 Copyright (c) Steve Scherf et al.
# Submitted via: audiograbber 1.81.03
#
DISCID=ac0e250e
DTITLE=John Dirven - The road goes on
DYEAR=2004
DGENRE=Blues
TTITLE0=Warriors forever
TTITLE1=The red floor
TTITLE2=Princess and knight
TTITLE3=I could not make you hear
TTITLE4=You say you need me
TTITLE5=We'll be living our dreams
TTITLE6=A loving giving and receiving
TTITLE7=Time is running out
TTITLE8=Tomorrow
TTITLE9=Without CO2
TTITLE10=Just leave me out there
TTITLE11=Oh yes you promised
TTITLE12=The road goes on
TTITLE13=The life you want to lead
EXTD=
EXTT0=
EXTT1=
EXTT2=
EXTT3=
EXTT4=
EXTT5=
EXTT6=
EXTT7=
EXTT8=
EXTT9=
EXTT10=
EXTT11=
EXTT12=
EXTT13=
PLAYORDER=
